<?xml version="1.0" standalone="no"?>
<!DOCTYPE svg PUBLIC "-//W3C//DTD SVG 20010904//EN"
 "http://www.w3.org/TR/2001/REC-SVG-20010904/DTD/svg10.dtd">
<svg version="1.0" xmlns="http://www.w3.org/2000/svg"
 width="500.000000pt" height="500.000000pt" viewBox="0 0 500.000000 500.000000"
 preserveAspectRatio="xMidYMid meet">

<g transform="translate(0.000000,500.000000) scale(0.100000,-0.100000)"
fill="#000000" stroke="none">
<path d="M3440 4066 c0 -31 6 -34 13 -6 3 11 1 23 -4 26 -5 3 -9 -6 -9 -20z"/>
<path d="M3215 3970 c10 -11 20 -18 23 -15 7 6 -18 35 -31 35 -5 0 -2 -9 8
-20z"/>
<path d="M3660 3975 c-20 -24 -6 -28 15 -5 10 11 13 20 8 20 -6 0 -16 -7 -23
-15z"/>
<path d="M3283 3952 c-16 -11 -83 -119 -82 -134 0 -17 231 -312 244 -312 6 0
44 43 85 96 41 53 96 123 122 156 l47 59 -45 72 -46 71 -157 -1 c-86 0 -162
-3 -168 -7z m127 -26 c0 -6 -41 -76 -45 -76 -1 0 -14 18 -29 40 l-26 40 50 0
c27 0 50 -2 50 -4z m144 -36 c-15 -22 -28 -40 -29 -40 -4 0 -45 70 -45 76 0 2
23 4 50 4 l50 0 -26 -40z m-239 -58 c-13 -2 -38 -2 -54 0 l-29 3 25 43 26 43
28 -43 29 -43 -25 -3z m164 36 l23 -38 -57 0 c-57 0 -57 0 -43 23 8 12 21 32
29 44 15 25 16 24 48 -29z m160 0 l23 -38 -56 0 -56 0 28 45 c14 24 29 41 33
37 3 -4 16 -24 28 -44z"/>
<path d="M3740 3750 c0 -5 9 -10 20 -10 11 0 20 5 20 10 0 6 -9 10 -20 10 -11
0 -20 -4 -20 -10z"/>
<path d="M3215 3530 c-10 -11 -13 -20 -8 -20 13 0 38 29 31 35 -3 3 -13 -4
-23 -15z"/>
<path d="M3650 3543 c0 -13 29 -38 35 -31 3 3 -4 13 -15 23 -11 10 -20 13 -20
8z"/>
<path d="M3440 3433 c0 -21 3 -24 9 -14 5 8 7 20 4 28 -8 21 -13 15 -13 -14z"/>
<path d="M3485 3178 c-81 -111 -120 -154 -174 -190 -25 -17 -48 -32 -50 -34
-2 -2 13 -17 33 -35 37 -32 59 -67 79 -123 7 -20 13 -251 17 -651 5 -616 6
-620 29 -685 79 -223 270 -278 529 -153 l77 37 -120 6 c-97 4 -128 10 -161 27
-62 33 -121 105 -146 182 -23 66 -23 67 -26 884 -2 631 -6 817 -15 817 -7 0
-39 -37 -72 -82z"/>
<path d="M2854 2901 c-60 -25 -82 -106 -43 -155 43 -55 116 -54 159 1 58 74
-30 190 -116 154z"/>
<path d="M2995 2686 c-91 -40 -60 -186 40 -186 47 0 71 13 90 50 22 43 18 76
-12 110 -33 35 -76 45 -118 26z"/>
<path d="M2760 2603 c-107 -42 -79 -192 36 -193 72 0 117 69 90 135 -7 16 -20
36 -29 43 -18 15 -75 24 -97 15z"/>
<path d="M1540 2299 c-77 -104 -142 -171 -185 -191 -33 -15 -32 -29 6 -57 17
-13 42 -47 56 -77 44 -97 53 -400 17 -563 -35 -156 -154 -305 -305 -380 -45
-23 -88 -41 -95 -41 -8 0 -14 -7 -14 -15 0 -18 59 -20 165 -5 229 32 407 236
450 513 l6 37 729 0 730 0 0 440 c0 282 -4 440 -10 440 -5 0 -49 -53 -97 -117
-64 -85 -104 -129 -146 -157 l-58 -40 45 -38 c55 -47 75 -101 83 -225 l6 -93
-277 0 -276 0 0 336 c0 264 -3 335 -12 332 -14 -5 -70 -73 -136 -166 -25 -34
-69 -78 -103 -102 -32 -23 -59 -44 -59 -48 0 -4 16 -17 36 -30 21 -14 43 -41
54 -65 21 -47 40 -149 40 -214 l0 -43 -275 0 -275 0 0 335 c0 261 -3 335 -12
335 -7 0 -47 -45 -88 -101z"/>
<path d="M2353 1325 c-39 -17 -53 -42 -53 -93 0 -97 130 -132 180 -49 11 18
20 40 20 50 0 34 -31 79 -65 93 -41 17 -42 17 -82 -1z"/>
<path d="M2123 1243 c-35 -7 -73 -59 -73 -100 0 -25 8 -43 29 -64 44 -44 102
-43 144 2 66 71 -1 180 -100 162z"/>
</g>
</svg>
